<svg width="48" height="48" viewBox="0 0 48 48" fill="none" xmlns="http://www.w3.org/2000/svg">
<rect width="48" height="48" rx="24" fill="#FF7E21"/>
<path d="M24.3281 21.5469C25.9427 21.724 27.3125 22.0208 28.4375 22.4375C29.5625 22.8542 30.474 23.3542 31.1719 23.9375C31.8802 24.5104 32.3906 25.151 32.7031 25.8594C33.026 26.5573 33.1875 27.2865 33.1875 28.0469C33.1875 28.9219 33.0469 29.6927 32.7656 30.3594C32.4844 31.026 32.1094 31.6146 31.6406 32.125C31.1823 32.625 30.651 33.0469 30.0469 33.3906C29.4531 33.7344 28.8385 34.0104 28.2031 34.2188C27.5781 34.4375 26.9583 34.5938 26.3438 34.6875C25.7292 34.7917 25.1771 34.849 24.6875 34.8594H24.2969C23.776 34.849 23.1771 34.8021 22.5 34.7188C21.8333 34.6458 21.1458 34.526 20.4375 34.3594C19.7396 34.1927 19.0521 33.9792 18.375 33.7188C17.6979 33.4479 17.0938 33.1146 16.5625 32.7188C16.0312 32.3229 15.6042 31.8542 15.2812 31.3125C14.9583 30.7708 14.7969 30.1406 14.7969 29.4219C14.7969 29.0365 14.8594 28.6979 14.9844 28.4062C15.1094 28.1146 15.2812 27.8698 15.5 27.6719C15.7188 27.4635 15.9688 27.3021 16.25 27.1875C16.5417 27.0729 16.8542 27.0052 17.1875 26.9844C17.5938 26.9844 17.9688 27.0729 18.3125 27.25C18.6667 27.4167 18.974 27.6562 19.2344 27.9688C19.4948 28.2708 19.7031 28.6406 19.8594 29.0781C20.026 29.5052 20.1198 29.9844 20.1406 30.5156C20.1615 30.9427 20.2604 31.3802 20.4375 31.8281C20.6146 32.276 20.875 32.6823 21.2188 33.0469C21.5625 33.4115 21.9896 33.7083 22.5 33.9375C23.0104 34.1667 23.6094 34.2812 24.2969 34.2812C24.8385 34.2812 25.3281 34.1719 25.7656 33.9531C26.2135 33.7344 26.5938 33.4427 26.9062 33.0781C27.2188 32.7135 27.4583 32.2917 27.625 31.8125C27.7917 31.3229 27.875 30.8125 27.875 30.2812C27.875 29.8021 27.7917 29.3281 27.625 28.8594C27.4583 28.3906 27.1979 27.974 26.8438 27.6094C26.4896 27.2344 26.0365 26.9271 25.4844 26.6875C24.9323 26.4479 24.2708 26.3125 23.5 26.2812C21.9271 26.2083 20.5833 25.974 19.4688 25.5781C18.3646 25.1823 17.4583 24.6719 16.75 24.0469C16.0417 23.4115 15.5208 22.6875 15.1875 21.875C14.8646 21.0625 14.7031 20.2083 14.7031 19.3125C14.7031 18.3438 14.849 17.4948 15.1406 16.7656C15.4323 16.026 15.8177 15.3906 16.2969 14.8594C16.7865 14.3177 17.3438 13.8698 17.9688 13.5156C18.5938 13.151 19.2396 12.8594 19.9062 12.6406C20.5833 12.4219 21.25 12.2708 21.9062 12.1875C22.5729 12.0938 23.1875 12.0469 23.75 12.0469H23.9375C24.4583 12.0573 25.0365 12.1042 25.6719 12.1875C26.3177 12.2604 26.9688 12.3802 27.625 12.5469C28.2917 12.7135 28.9323 12.9323 29.5469 13.2031C30.1719 13.474 30.724 13.8073 31.2031 14.2031C31.6927 14.599 32.0833 15.0677 32.375 15.6094C32.6667 16.1406 32.8125 16.7552 32.8125 17.4531C32.8125 17.8594 32.7448 18.2135 32.6094 18.5156C32.474 18.8177 32.2917 19.0729 32.0625 19.2812C31.8438 19.4792 31.5833 19.6302 31.2812 19.7344C30.9792 19.8385 30.6667 19.8906 30.3438 19.8906C29.9479 19.8906 29.5781 19.8021 29.2344 19.625C28.8906 19.4479 28.5885 19.2031 28.3281 18.8906C28.0781 18.5781 27.875 18.2083 27.7188 17.7812C27.5729 17.3438 27.5 16.8646 27.5 16.3438C27.5 15.8958 27.4427 15.4531 27.3281 15.0156C27.2135 14.5781 27.0156 14.1875 26.7344 13.8438C26.4635 13.4896 26.099 13.2031 25.6406 12.9844C25.1823 12.7656 24.6146 12.6458 23.9375 12.625H23.7812C23.2708 12.6458 22.7969 12.7969 22.3594 13.0781C21.9323 13.349 21.5625 13.7083 21.25 14.1562C20.9375 14.6042 20.6927 15.1094 20.5156 15.6719C20.349 16.224 20.2656 16.7865 20.2656 17.3594C20.2656 17.8594 20.3385 18.3438 20.4844 18.8125C20.6406 19.2812 20.8802 19.7083 21.2031 20.0938C21.5365 20.4688 21.9583 20.7865 22.4688 21.0469C22.9792 21.3073 23.599 21.474 24.3281 21.5469Z" fill="white"/>
</svg>
