<svg width="960" height="1080" viewBox="0 0 960 1080" fill="none" xmlns="http://www.w3.org/2000/svg">
  <rect width="960" height="1080" fill="#E8ECEF"/>
  <rect x="52" y="52" width="856" height="976" rx="28" fill="#101010"/>
  <rect x="92" y="92" width="190" height="896" rx="24" fill="#191919"/>
  <rect x="124" y="136" width="92" height="20" rx="10" fill="#D7FF5F"/>
  <rect x="124" y="232" width="116" height="16" rx="8" fill="#F7F3EC" fill-opacity=".5"/>
  <rect x="124" y="284" width="92" height="16" rx="8" fill="#F7F3EC" fill-opacity=".24"/>
  <rect x="124" y="336" width="128" height="16" rx="8" fill="#F7F3EC" fill-opacity=".24"/>
  <rect x="322" y="92" width="546" height="132" rx="24" fill="#191919"/>
  <rect x="362" y="132" width="260" height="32" rx="16" fill="#F7F3EC"/>
  <rect x="362" y="180" width="170" height="16" rx="8" fill="#F7F3EC" fill-opacity=".32"/>
  <rect x="322" y="264" width="254" height="220" rx="24" fill="#242424"/>
  <rect x="614" y="264" width="254" height="220" rx="24" fill="#242424"/>
  <rect x="322" y="524" width="546" height="464" rx="24" fill="#191919"/>
  <path d="M366 878V708M442 878V648M518 878V740M594 878V620M670 878V680M746 878V594M822 878V724" stroke="#D7FF5F" stroke-width="28" stroke-linecap="round"/>
  <path d="M362 386C412 332 474 420 532 334" stroke="#FF6B57" stroke-width="12" stroke-linecap="round"/>
  <path d="M656 386C706 344 752 392 826 314" stroke="#F7F3EC" stroke-width="12" stroke-linecap="round"/>
</svg>
